<?xml version="1.0" standalone="no"?>
<!DOCTYPE svg PUBLIC "-//W3C//DTD SVG 1.1//EN" "http://www.w3.org/Graphics/SVG/1.1/DTD/svg11.dtd" >
<svg xmlns="http://www.w3.org/2000/svg">
<metadata>
This is a custom SVG webfont generated by Font Squirrel.
Copyright   : Copyright c 2011 Natanael Gama exondiscoveredcom with Reserved Font Name Exo
Designer    : Natanael Gama
</metadata>
<defs>
<font id="ExoBlack" horiz-adv-x="512" >
<font-face units-per-em="2048" ascent="1638" descent="-410" />
<missing-glyph horiz-adv-x="500" />
<glyph unicode=" " />
<glyph unicode="!" horiz-adv-x="567" d="M94 1497h377l-43 -1096h-299zM111 47v240q0 51 49 51h235q47 0 47 -51v-240q0 -47 -47 -47h-235q-49 0 -49 47z" />
<glyph unicode="&#x22;" horiz-adv-x="1017" d="M98 1362v137h377v-137l-20 -275h-332zM545 1362v137h377v-137l-21 -275h-336z" />
<glyph unicode="#" horiz-adv-x="1533" d="M23 393l40 271h302l32 174h-305l43 270h316l75 391h271l-76 -391h180l74 391h270l-74 -391h342l-38 -270h-345l-32 -176h344l-37 -271h-369l-75 -391h-271l76 391l-182 2l-76 -393h-270l75 393h-290zM635 664l192 -2l33 176h-192z" />
<glyph unicode="$" horiz-adv-x="1159" d="M63 981v125q0 207 113 303t301 102v177h221v-177q176 -8 344 -67v-309q-186 20 -430 20q-90 0 -120.5 -14.5t-30.5 -75.5v-23q0 -53 22.5 -75.5t100.5 -22.5h131q90 0 159.5 -29.5t110.5 -75.5t67.5 -106.5t36 -114t9.5 -108.5v-68q0 -451 -400 -458v-168h-221v168 q-27 0 -50.5 1t-40.5 2t-37.5 3t-32 3t-31 6t-27.5 7t-32.5 9.5t-32 10.5t-39 13t-43.5 14v309q225 -23 469 -22q66 0 93 19.5t27 64.5v33q0 47 -22.5 68.5t-85.5 21.5h-123q-111 0 -191.5 37t-119.5 86t-62.5 117.5t-28 109.5t-4.5 84z" />
<glyph unicode="%" horiz-adv-x="1982" d="M49 991v232q0 135 67.5 205.5t217.5 70.5h207q281 0 280 -276v-232q0 -135 -67.5 -205.5t-216.5 -70.5h-207q-281 0 -281 276zM305 1053q0 -41 14.5 -61.5t61.5 -20.5h104q47 0 63.5 21.5t16.5 60.5v108q0 49 -17.5 65.5t-58.5 16.5h-104q-39 0 -59.5 -16.5t-20.5 -65.5 v-108zM393 0l930 1499h254l-915 -1499h-269zM1163 283v231q0 135 66.5 206t216.5 71h209q281 0 280 -277v-231q0 -135 -67.5 -206t-216.5 -71h-209q-279 1 -279 277zM1419 344q0 -41 14.5 -61.5t61.5 -20.5h102q82 0 82 82v109q0 49 -18.5 65.5t-58.5 16.5h-103 q-39 0 -59.5 -16.5t-20.5 -65.5v-109z" />
<glyph unicode="&#x26;" horiz-adv-x="1464" d="M47.5 485.5q32.5 153.5 169.5 276.5l115 102l-86 133q-78 115 -65.5 220.5t83 183.5t160.5 94q72 12 147.5 15t119.5 1t125 -16t96.5 -17t97.5 -24v-295h-273q-68 0 -87 -21.5t-6 -52t52 -86.5l234 -327l262 225l143 -180l-137 -221l-72 -88l314 -408h-467l-125 172 l-123 -104q-63 -53 -174 -74t-237.5 21t-200.5 153q-98 164 -65.5 317.5zM434 397q72 -86 148 -8l53 55l-115 150l-61 -59q-76 -72 -25 -138z" />
<glyph unicode="'" horiz-adv-x="524" d="M63 1362v137h400v-137l-21 -275h-356z" />
<glyph unicode="(" horiz-adv-x="845" d="M86 668q0 209 40 399t97.5 311t113.5 212t96 131l40 40h350q-14 -20 -36.5 -57t-81 -155.5t-103.5 -240.5t-82 -298t-37 -342q0 -510 258 -967q47 -84 82 -131h-350q-16 12 -41.5 35.5t-92.5 117t-118 207t-93 312.5t-42 426z" />
<glyph unicode=")" horiz-adv-x="845" d="M23 -430q14 18 36.5 52t81 146.5t103.5 233.5t81.5 303t36.5 363q0 474 -262 962l-77 131h350q16 -14 41.5 -41.5t92 -127t118 -215t93.5 -308t42 -401.5q0 -166 -21.5 -316.5t-55.5 -258t-76 -199t-83 -149.5t-74.5 -99t-55.5 -59l-21 -17h-350z" />
<glyph unicode="*" horiz-adv-x="856" d="M57 1159v144l285 38l10 -192zM156 856l51 283l186 -49l-100 -277zM322 1479l137 45l125 -258l-181 -70zM360 940l105 162l233 -182l-86 -115zM471 1169l244 166l84 -116l-207 -199z" />
<glyph unicode="+" horiz-adv-x="933" d="M41 571v316h266v268h316v-268h270v-316h-270v-268h-316v268h-266z" />
<glyph unicode="," horiz-adv-x="522" d="M98 51v234q0 55 52 55h227q49 0 49 -55v-308q0 -72 -33 -113.5t-80 -52t-93 -9.5t-79 10l-32 8v127q41 -2 52 10t11 33v10h-22q-52 0 -52 51z" />
<glyph unicode="-" horiz-adv-x="724" d="M41 436v316h643v-316h-643z" />
<glyph unicode="." horiz-adv-x="526" d="M98 47v240q0 51 49 51h232q51 0 51 -51v-240q0 -47 -51 -47h-232q-49 0 -49 47z" />
<glyph unicode="/" horiz-adv-x="1028" d="M23 -147l575 1724h408l-576 -1724h-407z" />
<glyph unicode="0" horiz-adv-x="1271" d="M80 393v692q0 201 102.5 307.5t294.5 106.5h336q379 0 379 -393v-713q0 -184 -99.5 -288.5t-281.5 -104.5h-336q-197 0 -296 102.5t-99 290.5zM477 477q0 -53 21.5 -81.5t43 -34t52.5 -5.5h86q59 0 87 21.5t28 97.5v549q0 119 -99 119h-116q-102 0 -103 -119v-547z" />
<glyph unicode="1" horiz-adv-x="776" d="M45 1081v252l246 166h393v-1499h-397v1122z" />
<glyph unicode="2" horiz-adv-x="1191" d="M45 1161v297q281 61 623 62q231 0 349 -133.5t118 -358.5q0 -98 -45.5 -202.5t-127 -202t-133 -148.5t-124.5 -119h430v-356h-1074v344q180 119 428 348.5t248 329.5q0 88 -49 113.5t-184 25.5h-459z" />
<glyph unicode="3" horiz-adv-x="1177" d="M35 1147v299q84 29 200.5 43t230.5 15t241 -1q174 -4 280.5 -102t106.5 -277v-80q0 -238 -172 -299q172 -55 172 -315v-59q0 -184 -106.5 -284.5t-295.5 -100.5h-76h-80q-16 0 -73 1t-79 2t-69 4t-73.5 7t-65.5 10t-69.5 14.5t-59.5 18.5l2 301h447q129 0 164.5 15.5 t35.5 82.5v19q0 66 -37.5 82t-150.5 22l-334 15v323l334 21q55 2 75.5 4t51.5 7t40 15.5t17 27.5t8 46v18q0 37 -13 59.5t-45 32t-57.5 11.5t-76.5 2h-473z" />
<glyph unicode="4" horiz-adv-x="1300" d="M23 459l432 1040h426l-322 -854h199v275l55 159h342v-434h123v-305l-123 -59v-277h-397v277h-666z" />
<glyph unicode="5" horiz-adv-x="1212" d="M88 41v317h541q45 0 71.5 9.5t37 31t11.5 32.5t1 36v63q0 55 -21.5 82t-77.5 27h-90q-49 0 -69.5 -21.5t-20.5 -70.5h-381l45 952h948v-356h-561l-8 -209q57 35 133 41q78 6 156 0q172 -14 258 -123t86 -279v-192q0 -195 -123 -292t-293 -97q-211 0 -330.5 8t-312.5 41z " />
<glyph unicode="6" horiz-adv-x="1222" d="M76 786q0 195 28.5 335.5t81 217t109.5 113.5t133 49q274 43 680 -43v-303h-449q-68 0 -107.5 -17.5t-56 -59.5t-19.5 -76.5t-3 -106.5q53 29 114.5 36t198.5 7q209 0 290 -100.5t81 -286.5v-186q0 -367 -391 -367h-283q-80 0 -139 19.5t-111.5 71.5t-86 140t-52 227.5 t-18.5 329.5zM473 602q0 -160 31 -204t133 -44h35q51 0 69.5 19.5t18.5 75.5v40q0 72 -12.5 92.5t-65.5 20.5h-209z" />
<glyph unicode="7" horiz-adv-x="1148" d="M35 1143v356h985l96 -160l-469 -1339h-422l406 1143h-596z" />
<glyph unicode="8" horiz-adv-x="1263" d="M86 367v108q0 88 36 157.5t116 82.5q-43 23 -74 51.5t-45.5 53t-22.5 64.5t-9 64.5t-1 73.5v133q0 354 401 354h320q188 0 280.5 -83t92.5 -273v-90q0 -39 -9.5 -83t-46.5 -95t-98 -60q154 -29 154 -290v-156q0 -121 -29 -200t-86 -115.5t-116.5 -50t-143.5 -13.5h-318 q-80 0 -144 14.5t-105 35t-71 54t-45.5 63.5t-23.5 71t-10 66.5t-2 62.5zM483 430q0 -53 21.5 -73.5t75.5 -20.5h106q33 0 53.5 6t29.5 20.5t11 29t2 38.5v82q0 47 -18.5 71.5t-73.5 24.5h-110q-59 0 -78 -23.5t-19 -72.5v-82zM483 1012q0 -57 20.5 -73.5t76.5 -16.5h106 q63 0 79.5 19.5t16.5 70.5v61q0 35 -7 56.5t-23.5 30.5t-28.5 11.5t-37 2.5h-106q-53 0 -75 -17.5t-22 -83.5v-61z" />
<glyph unicode="9" horiz-adv-x="1222" d="M70 948v187q0 367 391 366h282q80 0 139.5 -19.5t112 -71.5t86 -140t52 -227.5t18.5 -329.5q0 -195 -28.5 -335t-81 -217t-110 -114t-132.5 -49q-274 -43 -680 43v303h448q68 0 108 17.5t56.5 59.5t19.5 76.5t3 106.5q-53 -29 -114.5 -36t-199.5 -7q-209 0 -289.5 100.5 t-80.5 286.5zM467 1010q0 -72 12.5 -92.5t65.5 -20.5h209q0 160 -31 204t-133 44h-35q-51 0 -69.5 -19.5t-18.5 -74.5v-41z" />
<glyph unicode=":" horiz-adv-x="526" d="M98 47v240q0 51 49 51h232q51 0 51 -51v-240q0 -47 -51 -47h-232q-49 0 -49 47zM98 797v239q0 51 49 51h232q51 0 51 -51v-239q0 -47 -51 -47h-232q-49 0 -49 47z" />
<glyph unicode=";" horiz-adv-x="526" d="M98 51v234q0 55 52 55h227q49 0 49 -55v-308q0 -72 -33 -113.5t-80 -52t-93 -9.5t-79 10l-32 8v127q41 -2 52 10t11 33v10h-22q-52 0 -52 51zM98 797v239q0 51 49 51h232q51 0 51 -51v-239q0 -47 -51 -47h-232q-49 0 -49 47z" />
<glyph unicode="&#x3c;" horiz-adv-x="882" d="M57 545v348l768 266v-348l-379 -88l379 -109v-348z" />
<glyph unicode="=" horiz-adv-x="956" d="M41 332v315h874v-315h-874zM41 780v316h874v-316h-874z" />
<glyph unicode="&#x3e;" horiz-adv-x="882" d="M57 266v348l379 109l-379 88v348l768 -266v-348z" />
<glyph unicode="?" horiz-adv-x="1114" d="M23 1155v297q279 74 577 61q219 0 344 -126.5t125 -292.5v-105q0 -221 -96 -326.5t-340 -97.5v-166h-297v455h188q80 4 115 35t35 108v31q0 127 -178 127h-473zM317 47v240q0 51 50 51h231q51 0 51 -51v-240q0 -47 -51 -47h-231q-50 0 -50 47z" />
<glyph unicode="@" horiz-adv-x="1818" d="M76 41v549q0 209 115.5 334t371.5 125h355q70 0 117.5 -5.5t105 -25t91.5 -55t57.5 -102t23.5 -161.5v-700h-242l-49 111l-12 -14q-12 -13 -35 -32.5t-53.5 -38t-78.5 -31.5t-100 -13q-133 0 -197.5 90t-64.5 211v67q0 293 326 293h211q2 31 0 33q0 49 -19.5 63.5 t-70.5 14.5h-365q-90 0 -141 -37t-51 -148v-487q0 -125 58 -178.5t134 -53.5h654q119 0 164.5 58.5t45.5 173.5v844q0 117 -57 180t-153 63h-828v240q281 57 651 55h177q94 0 179 -26.5t160.5 -85t120.5 -168t45 -258.5v-844q0 -279 -124.5 -403.5t-360.5 -124.5h-674 q-211 0 -349 114.5t-138 372.5zM795 350q0 -10 2 -12q0 -33 15 -47.5t56 -14.5q119 0 150 70v88l-160 -12q-35 -4 -48 -14.5t-13 -45.5q-2 -2 -2 -12z" />
<glyph unicode="A" horiz-adv-x="1456" d="M51 0l469 1499h469l455 -1499h-408l-88 262h-403l-86 -262h-408zM635 600h233l-108 401z" />
<glyph unicode="B" horiz-adv-x="1251" d="M92 0v1499h651q451 0 451 -409q0 -109 -58.5 -206.5t-160.5 -105.5q113 -18 184.5 -109t71.5 -210q0 -246 -117 -352.5t-360 -106.5h-662zM489 336h244q55 0 78 36t23 107q0 147 -101 148h-244v-291zM489 942h224q45 0 68.5 29.5t23.5 75.5q0 116 -90 116h-2h-224v-221z " />
<glyph unicode="C" horiz-adv-x="1161" d="M63 754q0 385 114 573.5t405 188.5q213 0 308 -15.5t232 -66.5v-310l-12 2q-12 2 -34.5 5.5t-52.5 7.5t-66.5 7t-76.5 6t-86 5t-89 2q-121 0 -158 -22q-72 -44 -83 -259q-3 -56 -3 -128q0 -254 46 -330t200 -76q96 0 199.5 4t159.5 9l56 5v-309q-98 -41 -208 -55 q-86 -11 -239 -11q-44 0 -93 1q-279 4 -399 191.5t-120 574.5z" />
<glyph unicode="D" horiz-adv-x="1366" d="M92 0v1499h703q119 0 209 -39t146 -104.5t92 -163.5t49.5 -205.5t13.5 -243.5q0 -389 -125 -566t-385 -177h-703zM489 336h265q86 0 119.5 94t33.5 315q0 178 -19.5 272.5t-50 120t-83.5 25.5h-265v-827z" />
<glyph unicode="E" horiz-adv-x="1161" d="M82 330v821q0 348 381 348q430 0 670 -33v-333h-547q-49 0 -75 -19.5t-29 -39t-3 -56.5v-90l551 -23v-330l-551 -18v-90q0 -39 10.5 -62.5t33 -31.5t37.5 -10.5t46 -2.5h527v-331q-94 -12 -256 -21.5t-278 -11.5l-116 -2h-21q-52 0 -100 8q-58 10 -127 40t-111 103.5 t-42 184.5z" />
<glyph unicode="F" horiz-adv-x="1161" d="M82 0v1143q0 100 34 173t92 111.5t121.5 55t133.5 16.5q430 0 670 -33v-333h-547q-49 0 -75 -19.5t-29 -39t-3 -56.5v-90l551 -23v-330l-551 -18v-557h-397z" />
<glyph unicode="G" horiz-adv-x="1259" d="M63 758q0 184 21.5 313t75 234.5t153 158t248.5 52.5q250 0 335 -10.5t288 -65.5v-305q-2 0 -31 5t-77 11t-106.5 12t-135 11.5t-150.5 5.5q-139 0 -181 -85t-42 -341q0 -260 30.5 -330t161.5 -70q57 0 94 23.5t46 47.5l8 24v153h-101v246q96 51 359 51q66 0 139 -6v-893 h-280l-113 100q-45 -59 -91 -80.5t-163 -29.5q-21 -1 -41 -1q-97 0 -172 31q-90 39 -142.5 106t-83 173.5t-40 212t-9.5 246.5z" />
<glyph unicode="H" horiz-adv-x="1302" d="M92 0v1499h397v-596h349v596h397v-1499h-397v547h-349v-547h-397z" />
<glyph unicode="I" horiz-adv-x="557" d="M92 0v1499h397v-1499h-397z" />
<glyph unicode="J" horiz-adv-x="727" d="M41 51v316q82 0 126 7t65.5 34.5t25.5 57.5t4 99v934h397v-1161q0 -229 -110 -301q-75 -46 -220 -46q-17 0 -35 1q-171 6 -253 59z" />
<glyph unicode="K" horiz-adv-x="1351" d="M92 0v1499h377v-590h82l305 590h457l-412 -754l412 -745h-457l-305 573h-80v-573h-379z" />
<glyph unicode="L" horiz-adv-x="1077" d="M92 319v1180h397v-1036q0 -39 10.5 -62.5t33 -32t38 -10.5t45.5 -2h422v-356h-606q-152 0 -246 77.5t-94 241.5z" />
<glyph unicode="M" horiz-adv-x="1814" d="M63 0l160 1499h553l127 -842l135 842h553l162 -1499h-391l-102 817l-125 -817h-455l-131 817l-94 -817h-392z" />
<glyph unicode="N" horiz-adv-x="1386" d="M92 0v1499h402l428 -766v766h397v-1499h-397l-430 745v-745h-400z" />
<glyph unicode="O" horiz-adv-x="1366" d="M76 739q0 147 17.5 263t45 197t73.5 138.5t94 90t117 52t130 24.5t143 5q84 0 146.5 -6t131 -24.5t117 -51t93.5 -90t72.5 -138.5t44 -196.5t16.5 -263.5q0 -195 -31 -332t-80 -216.5t-133 -125t-169 -59.5t-208 -14q-104 0 -174.5 8t-148.5 33.5t-127 77t-90 132.5 t-60.5 204.5t-19.5 291.5zM473 739q0 -244 39 -317.5t184 -73.5q133 0 178.5 78t45.5 313q0 137 -8.5 213t-34 124t-66.5 62.5t-115 14.5q-96 0 -140 -27.5t-63.5 -114t-19.5 -272.5z" />
<glyph unicode="P" horiz-adv-x="1269" d="M90 0v1499h668q72 0 129 -8t122.5 -38t109.5 -80t73 -142t29 -217q0 -137 -31 -237.5t-77 -153t-112.5 -81t-122.5 -33.5q-31 -3 -64 -3q-27 0 -56 2q-57 4 -159.5 20.5t-111.5 20.5v-549h-397zM487 844h230q104 0 104 164q0 153 -103 153h-1h-230v-317z" />
<glyph unicode="Q" horiz-adv-x="1366" d="M76 739q0 147 17.5 263t45 197t73.5 138.5t94 90t117 52t130 24.5t143 5q84 0 146.5 -6t131 -24.5t117 -51t93.5 -90t72.5 -138.5t44 -196.5t16.5 -263.5q0 -162 -19.5 -284.5t-60.5 -202.5t-91 -132t-126 -80t-148.5 -37t-175.5 -11q-104 0 -174.5 8t-148.5 33.5 t-127 77t-90 132.5t-60.5 204.5t-19.5 291.5zM473 739q0 -244 39 -317.5t184 -73.5q133 0 178.5 78t45.5 313q0 137 -8.5 213t-34 124t-66.5 62.5t-115 14.5q-96 0 -140 -27.5t-63.5 -114t-19.5 -272.5zM586 -68h209q8 -91 155 -91q69 0 168 20v-287q-59 -9 -115 -9 q-71 0 -135 15q-116 25 -199 115t-83 237z" />
<glyph unicode="R" horiz-adv-x="1267" d="M90 0v1499h670q217 0 338 -109.5t121 -371.5q0 -127 -17.5 -213t-55.5 -132t-67.5 -65.5t-81.5 -40.5l258 -567h-452l-193 530l-123 29v-559h-397zM489 858h220q72 0 91 35t19 125q0 74 -23.5 108.5t-86.5 34.5h-220v-303z" />
<glyph unicode="S" horiz-adv-x="1220" d="M76 981v125q0 193 111.5 293t293.5 112q78 5 151 5q285 0 484 -72v-309q-186 20 -491 20q-90 0 -121 -14.5t-31 -75.5v-23q0 -53 22.5 -75.5t100.5 -22.5h192q90 0 160 -29.5t111 -75.5t67.5 -106.5t35.5 -114t9 -108.5v-68q0 -458 -413 -458h-2q-299 0 -391.5 9 t-241.5 60v309q216 -22 505 -22h25q66 0 93.5 19.5t27.5 64.5v33q0 47 -22.5 68.5t-85.5 21.5h-185q-111 0 -191.5 37t-119.5 86t-62.5 117.5t-27.5 109.5t-4 84z" />
<glyph unicode="T" horiz-adv-x="1243" d="M41 1143v356h1163v-356h-389v-1143h-397v1143h-377z" />
<glyph unicode="U" horiz-adv-x="1341" d="M92 655v844h397v-844q0 -72 2.5 -107.5t12.5 -81.5t30.5 -67.5t58.5 -37t95 -15.5q53 0 89 16.5t55.5 38t28.5 67.5t11 83t2 104v844h400v-844q0 -109 -12.5 -197.5t-32 -153t-53 -116t-64.5 -83t-79 -55t-81.5 -35t-90 -17.5t-87.5 -7t-86 -1h-19q-110 0 -168.5 4 t-149.5 38t-138 100.5t-84 198t-37 324.5z" />
<glyph unicode="V" horiz-adv-x="1431" d="M51 1499h418l248 -1012l268 1012h418l-449 -1499h-479z" />
<glyph unicode="W" horiz-adv-x="2084" d="M51 1499h418l248 -1012l186 1012h418l-76 -311l209 -701l186 1012h418l-366 -1499h-480l-137 489l-121 -489h-479z" />
<glyph unicode="X" horiz-adv-x="1390" d="M51 1499h441l215 -416l215 416h440l-457 -756l447 -743h-441l-204 401l-209 -401h-441l449 743z" />
<glyph unicode="Y" horiz-adv-x="1390" d="M51 1499h432l215 -663l232 663h432l-473 -1089v-410h-397v410z" />
<glyph unicode="Z" horiz-adv-x="1130" d="M41 0v356l586 787h-586v356h1051v-356l-525 -787h525v-356h-1051z" />
<glyph unicode="[" horiz-adv-x="704" d="M98 25v1286q0 207 96.5 310t305.5 103h184v-315h-61q-61 0 -94 -36t-33 -124v-1204q0 -88 32.5 -124t94.5 -36h61v-315h-184q-402 0 -402 455z" />
<glyph unicode="\" horiz-adv-x="1028" d="M23 1577h407l576 -1724h-408z" />
<glyph unicode="]" horiz-adv-x="704" d="M23 -115h61q61 0 94 36t33 124v1204q0 88 -33 124t-94 36h-61v315h184q209 0 305 -103t96 -310v-1286q0 -455 -401 -455h-184v315z" />
<glyph unicode="^" horiz-adv-x="774" d="M57 1087l205 287h268l187 -287h-228l-100 105l-102 -105h-230z" />
<glyph unicode="_" horiz-adv-x="1380" d="M41 -2v315h1298v-315h-1298z" />
<glyph unicode="`" horiz-adv-x="499" d="M23 1380h296l158 -293h-223z" />
<glyph unicode="a" horiz-adv-x="1062" d="M45 293v84q0 137 81 228t275 91q104 -1 156.5 -1t52.5 1q2 12 0 15q0 33 -6 53t-13 31.5t-27.5 15.5t-34 5t-46.5 1l-401 -22v231q102 49 203.5 65.5t263.5 16.5q233 0 346 -80t113 -297v-731h-320l-78 111q-20 -47 -76 -87q-50 -36 -136 -36h-17q-92 4 -160.5 35.5 t-104.5 79t-53.5 95.5t-17.5 95zM442 358q0 -14 1 -24t5.5 -18.5t7.5 -14.5t10 -9t10 -5t13.5 -3t12.5 -1h13h13q37 0 57.5 16t22.5 34l2 17v123l-106 -10q-31 -2 -45.5 -21.5t-15.5 -32t-1 -38.5v-13z" />
<glyph unicode="b" horiz-adv-x="1144" d="M70 0v1608h397v-566q117 61 270 62q211 0 282 -128t71 -437q0 -293 -84 -422t-269 -129q-84 0 -141 27.5t-127 84.5l-59 -100h-340zM469 354q27 -45 133 -45q49 0 69.5 47t20.5 203q0 162 -20.5 211t-69.5 49q-104 0 -133 -31v-434z" />
<glyph unicode="c" horiz-adv-x="1003" d="M57 545q0 301 94.5 427t264.5 126h44h55q17 0 59 -1t69 -4t70 -8.5t76.5 -13.5t75.5 -20.5t79 -26.5v-233q-123 12 -305 12q-66 0 -90.5 -3t-52 -27.5t-34.5 -78t-7 -153.5q0 -96 6 -146.5t31.5 -76t53 -29.5t93.5 -4l319 16v-233q-53 -39 -130.5 -57.5t-127.5 -21.5 q-30 -2 -81 -2q-33 0 -75 1q-104 2 -128 2q-359 0 -359 555z" />
<glyph unicode="d" horiz-adv-x="1144" d="M57 539q0 317 70 441t283 124q154 0 270 -62v566h397v-1608h-340l-59 100q-70 -57 -127 -84.5t-141 -27.5q-186 0 -269.5 124t-83.5 427zM455 559q0 -156 20.5 -203t69.5 -47q106 0 133 45v434q-29 31 -133 31q-49 0 -69.5 -49t-20.5 -211z" />
<glyph unicode="e" horiz-adv-x="1075" d="M57 549q0 227 48.5 345t144.5 160t282 42q150 0 234 -12.5t149.5 -55.5t90 -123t24.5 -215q0 -160 -82 -225.5t-239 -65.5h-254q0 -37 9 -60.5t19.5 -35.5t39 -17t47 -5t63.5 1t69 1q154 0 308 22v-258q-29 -14 -66 -24.5t-88 -16.5t-84 -9t-99.5 -5t-86.5 -2h-94h-76 q-201 0 -280 133t-79 426zM455 651h118q27 0 43.5 18.5t16.5 47.5q0 61 -11.5 82.5t-60.5 21.5q-68 -1 -88 -29q-18 -26 -18 -121v-20z" />
<glyph unicode="f" horiz-adv-x="833" d="M23 813v240l147 34v203q0 178 91 249t286 71q168 0 264 -49v-228l-149 2q-35 0 -54.5 -5t-29 -26.5t-10.5 -41t-1 -68.5v-27v-80h201v-274h-201v-813h-397v813h-147z" />
<glyph unicode="g" horiz-adv-x="1159" d="M51 188q0 160 131 213q-121 78 -121 304q0 387 396 387h680v-218l-84 -36q22 -63 22 -184v-11q0 -156 -89 -247t-310 -91h-197h-14h-17q-4 0 -14 -1t-15 -3t-11.5 -6t-8.5 -11.5t-2 -15.5q0 -20 12.5 -30.5t27 -11.5t42.5 -1h250q369 0 369 -354v-109q0 -315 -369 -315 h-307q-154 0 -251 80t-97 235v109l106 72q-51 23 -90 85t-39 160zM459 705q0 -70 19.5 -87.5t66.5 -17.5h45q53 0 70.5 17.5t17.5 87.5q0 59 -21.5 75.5t-68.5 16.5h-49q-51 0 -65.5 -21.5t-14.5 -70.5zM473 -72v-102q0 -53 17.5 -68.5t72.5 -15.5h58q31 0 49 5t24 19.5 t7 20.5t1 29v47q0 27 -21.5 45t-57.5 20h-68h-82z" />
<glyph unicode="h" horiz-adv-x="1136" d="M70 0v1602h395v-621q39 39 69.5 60.5t92 43t139.5 21.5q102 0 167.5 -29.5t96.5 -91t41 -126t10 -163.5v-696h-397v705q0 61 -16.5 83.5t-51.5 22.5q-117 0 -149 -76v-735h-397z" />
<glyph unicode="i" horiz-adv-x="516" d="M57 1237v240q0 51 49 51h308q45 0 45 -51v-240q0 -47 -45 -47h-308q-49 0 -49 47zM59 0v1087h398v-1087h-398z" />
<glyph unicode="j" horiz-adv-x="540" d="M70 1237v240q0 51 49 51h307q47 0 47 -51v-240q0 -47 -47 -47h-307q-49 0 -49 47zM74 -553v1640h397v-1095v-29q0 -353 -94 -516h-303z" />
<glyph unicode="k" horiz-adv-x="1239" d="M70 0v1602h397v-861h41l221 346h488l-347 -483l347 -604h-465l-244 467h-41v-467h-397z" />
<glyph unicode="l" horiz-adv-x="665" d="M70 387v1217h397v-1135q0 -68 10 -109t24.5 -56t41.5 -30q86 -43 100 -43v-231h-283q-150 0 -220 88t-70 299z" />
<glyph unicode="m" horiz-adv-x="1755" d="M70 0v1087h331l66 -106q49 45 75.5 64.5t86 40t137.5 20.5q197 0 266 -125q63 41 100 60.5t108 42t144 22.5q102 0 168 -29.5t96.5 -91t41 -126t10.5 -163.5v-696h-397v705q0 61 -16.5 83.5t-51.5 22.5q-117 0 -156 -61q0 -8 1 -25.5t1 -28.5v-696h-397v705 q0 61 -16.5 83.5t-51.5 22.5q-117 0 -149 -76v-735h-397z" />
<glyph unicode="n" horiz-adv-x="1136" d="M70 0v1087h331l66 -106q45 43 72.5 63.5t88 41t138.5 20.5q102 0 167.5 -29.5t96.5 -91t41 -126t10 -163.5v-696h-397v705q0 61 -16.5 83.5t-51.5 22.5q-117 0 -149 -76v-735h-397z" />
<glyph unicode="o" horiz-adv-x="1134" d="M57 528q0 328 112 449t398.5 121t398 -123t111.5 -447q0 -305 -109.5 -421.5t-400.5 -116.5q-285 0 -397.5 121.5t-112.5 416.5zM455 528q0 -164 17 -203.5t95 -39.5q82 0 97.5 34.5t15.5 208.5q0 188 -15.5 231.5t-97.5 43.5q-86 0 -99 -41t-13 -234z" />
<glyph unicode="p" horiz-adv-x="1144" d="M70 -553v1640h340l59 -100q70 57 127 85t141 28q184 0 268.5 -130t84.5 -421q0 -111 -8.5 -192t-31 -154.5t-61.5 -119.5t-102.5 -72.5t-149.5 -26.5q-154 0 -270 61v-598h-397zM469 299q29 -31 133 -31q49 0 69.5 49.5t20.5 210.5q0 156 -20.5 203t-69.5 47 q-106 0 -133 -45v-434z" />
<glyph unicode="q" horiz-adv-x="1136" d="M57 549q0 295 106.5 423t309.5 128q170 0 343 -20.5t253 -53.5v-1579h-397v612q-60 -79 -196 -79h-3q-229 0 -322.5 133t-93.5 436zM455 563q0 -182 20.5 -239.5t95.5 -57.5q70 0 101 39v520h-97q-43 0 -68.5 -21.5t-36.5 -66.5t-13 -79t-2 -95z" />
<glyph unicode="r" horiz-adv-x="839" d="M70 0v1087h352l45 -137q29 59 93.5 103.5t141.5 44.5q63 0 97 -11v-380h-162q-41 0 -62.5 -2.5t-51 -12.5t-43 -37.5t-13.5 -70.5v-584h-397z" />
<glyph unicode="s" horiz-adv-x="1046" d="M45 692v94q0 139 67.5 225.5t215.5 86.5q388 0 491 -19q96 -17 127 -55v-233h-459q-16 0 -24 -1.5t-14.5 -9.5t-6.5 -26v-13q0 -16 7.5 -23t14.5 -8t23 -1h205q162 0 234.5 -81t72.5 -214v-121q0 -156 -77.5 -229.5t-188.5 -73.5h-72q-174 0 -260 2t-183 19.5t-128 54.5 v234h475q25 0 31 7.5t6 26.5v10q0 20 -7 28.5t-30 8.5h-196q-150 0 -237 78.5t-87 232.5z" />
<glyph unicode="t" horiz-adv-x="788" d="M23 815v197l153 78l57 303h340v-303h183v-275h-183v-344q0 -100 17.5 -139t56.5 -60q86 -43 101 -43v-231h-308q-129 0 -196.5 91t-67.5 300v426h-153z" />
<glyph unicode="u" horiz-adv-x="1136" d="M57 391v696h398v-704q0 -61 16 -84t51 -23q117 0 150 76v735h397v-1087h-332l-65 106q-20 -12 -61.5 -42.5t-64 -44t-68.5 -25.5t-105 -12q-102 0 -168 29.5t-96.5 91t-41 126t-10.5 162.5z" />
<glyph unicode="v" horiz-adv-x="1204" d="M23 1087h421l154 -659l164 659h420l-361 -1087h-459z" />
<glyph unicode="w" horiz-adv-x="1734" d="M23 1087h421l134 -659l122 659h385l-47 -247l133 -412l119 659h424l-299 -1087h-459l-98 281l-78 -281h-458z" />
<glyph unicode="x" horiz-adv-x="1253" d="M29 0l360 545l-360 542h475l121 -249l125 249h475l-367 -548l350 -539h-458l-123 248l-123 -248h-475z" />
<glyph unicode="y" horiz-adv-x="1226" d="M25 1087h411l125 -688q14 -76 88 -80l142 768h403l-293 -1431l-145 -209h-295l121 553q-315 0 -387 319z" />
<glyph unicode="z" horiz-adv-x="1001" d="M35 772v315h934v-315l-371 -455h371v-315h-903v311l403 459h-434z" />
<glyph unicode="{" horiz-adv-x="659" d="M23 543v280q123 10 122 109v411q0 381 492 381v-315q-63 0 -78.5 -42t-15.5 -187v-279q0 -109 -54.5 -159t-160.5 -58q213 -43 213 -211v-407q0 -115 15 -158t81 -43v-295q-270 0 -382 81t-112 271v512q1 117 -120 109z" />
<glyph unicode="|" d="M98 -147v1724h316v-1724h-316z" />
<glyph unicode="}" horiz-adv-x="659" d="M23 -135q66 0 81 43t15 158v407q0 168 213 211q-106 8 -160.5 58.5t-54.5 158.5v279q0 145 -15.5 187t-78.5 42v315q492 0 491 -381v-411q0 -98 123 -109v-280q-121 8 -121 -109v-512q0 -190 -111.5 -271t-381.5 -81v295z" />
<glyph unicode="~" horiz-adv-x="827" d="M57 1225q104 152 252 151q47 0 112.5 -35.5t104.5 -35.5q106 -6 191 81l53 -151q-98 -147 -229 -148q-45 0 -122 36t-116 36q-98 0 -190 -72z" />
<glyph unicode="&#xa0;" />
<glyph unicode="&#xa2;" horiz-adv-x="993" d="M45 545q0 301 95.5 427t265.5 126v200h221v-204q172 -14 307 -70v-233q-125 12 -307 12q-66 0 -90.5 -3t-52 -27.5t-35 -78t-7.5 -153.5q0 -96 6.5 -146.5t32 -76t53 -29.5t93.5 -4l319 16v-233q-115 -80 -328 -80v-183h-221v185q-352 8 -352 555z" />
<glyph unicode="&#xa3;" horiz-adv-x="1171" d="M57 0v305l127 51v258h-127v195l127 55v88q0 170 36 280.5t114 168t175 78t245 20.5q51 0 141 -8t155 -16l64 -9v-321h-377q-94 0 -124.5 -25.5t-30.5 -122.5v-133l370 -35v-215h-370v-258h530v-356h-1055z" />
<glyph unicode="&#xa5;" horiz-adv-x="1355" d="M23 1499h432l215 -663l231 663h432l-340 -780h109v-203h-242v-51h242v-203h-242v-262h-397v262h-236v203h236v51h-236v203h111z" />
<glyph unicode="&#xa8;" horiz-adv-x="905" d="M57 1192q0 55 40 94t95.5 39t94.5 -39t39 -94t-39 -95t-94.5 -40t-95.5 40t-40 95zM580 1192q0 55 39.5 94t95 39t94.5 -39t39 -94t-39 -95t-94.5 -40t-95 40t-39.5 95z" />
<glyph unicode="&#xa9;" horiz-adv-x="1622" d="M63 754q0 164 24 287.5t83 232t175 167t286 58.5h409q152 0 256.5 -53t160.5 -156.5t80 -231.5t24 -304q0 -383 -138.5 -568.5t-382.5 -185.5h-409q-287 0 -427.5 200t-140.5 554zM297 754q0 -254 82 -397.5t252 -143.5h389q150 0 228.5 122t78.5 419q0 74 -3 126 t-11 119.5t-28.5 113.5t-50.5 88t-79 63.5t-115 21.5h-409q-158 0 -246 -113.5t-88 -418.5zM444 748q0 238 75 342t220 104q256 0 385 -49v-189q-172 25 -303 25q-84 0 -113.5 -48t-29.5 -192q0 -127 37 -177t121 -50q137 0 301 33v-189q-49 -27 -120 -40t-119 -15t-140 -2 q-314 1 -314 447z" />
<glyph unicode="&#xab;" horiz-adv-x="1243" d="M57 725l422 416l199 -195l-225 -221l227 -225l-191 -201zM563 725l422 416l199 -195l-226 -221l228 -225l-191 -201z" />
<glyph unicode="&#xad;" horiz-adv-x="724" d="M41 436v316h643v-316h-643z" />
<glyph unicode="&#xae;" horiz-adv-x="1622" d="M63 754q0 164 24 287.5t83 232t175 167t286 58.5h409q152 0 256.5 -53t160.5 -156.5t80 -231.5t24 -304q0 -383 -138.5 -568.5t-382.5 -185.5h-409q-287 0 -427.5 200t-140.5 554zM297 754q0 -254 82 -397.5t252 -143.5h389q150 0 228.5 122t78.5 419q0 74 -3 126 t-11 119.5t-28.5 113.5t-50.5 88t-79 63.5t-115 21.5h-409q-158 0 -246 -113.5t-88 -418.5zM485 313v875h383q274 0 275 -283q0 -119 -31 -181t-100 -87l172 -324h-248l-158 308l-59 24v-332h-234zM719 817h80q78 0 94 13.5t16 72.5q0 47 -19.5 59.5t-90.5 12.5h-80v-158z " />
<glyph unicode="&#xb4;" horiz-adv-x="499" d="M23 1087l157 293h297l-231 -293h-223z" />
<glyph unicode="&#xb8;" horiz-adv-x="487" d="M57 -213l76 31q43 18 50 32.5t7 73.5h240q0 -160 -54 -229.5t-194 -69.5h-125v162z" />
<glyph unicode="&#xbb;" horiz-adv-x="1243" d="M57 500l228 225l-226 221l199 195l422 -416l-432 -426zM563 500l228 225l-226 221l199 195l422 -416l-432 -426z" />
<glyph unicode="&#xd3;" horiz-adv-x="1366" d="M76 739q0 147 17.5 263t45 197t73.5 138.5t94 90t117 52t130 24.5t143 5q84 0 146.5 -6t131 -24.5t117 -51t93.5 -90t72.5 -138.5t44 -196.5t16.5 -263.5q0 -195 -31 -332t-80 -216.5t-133 -125t-169 -59.5t-208 -14q-104 0 -174.5 8t-148.5 33.5t-127 77t-90 132.5 t-60.5 204.5t-19.5 291.5zM473 739q0 -244 39 -317.5t184 -73.5q133 0 178.5 78t45.5 313q0 137 -8.5 213t-34 124t-66.5 62.5t-115 14.5q-96 0 -140 -27.5t-63.5 -114t-19.5 -272.5zM586 1632l155 293h299l-233 -293h-221z" />
<glyph unicode="&#xf3;" horiz-adv-x="1134" d="M57 528q0 328 112 449t398.5 121t398 -123t111.5 -447q0 -305 -109.5 -421.5t-400.5 -116.5q-285 0 -397.5 121.5t-112.5 416.5zM455 528q0 -164 17 -203.5t95 -39.5q82 0 97.5 34.5t15.5 208.5q0 188 -15.5 231.5t-97.5 43.5q-86 0 -99 -41t-13 -234zM455 1221l159 292 h295l-229 -292h-225z" />
<glyph unicode="&#x104;" horiz-adv-x="1456" d="M51 0l469 1499h469l455 -1499h-129q-70 -49 -75 -101.5t31 -80t75 -21.5v-184q-72 -25 -148 9t-117 97.5t-22.5 144.5t112.5 136h-135l-88 262h-403l-86 -262h-408zM635 600h233l-108 401z" />
<glyph unicode="&#x105;" horiz-adv-x="1062" d="M45 293v84q0 137 81 228t275 91q209 -2 209 0q2 12 0 15q0 33 -6 53t-13 31.5t-27.5 15.5t-34 5t-46.5 1l-401 -22v231q102 49 203.5 65.5t263.5 16.5q233 0 346 -80t113 -297v-731h-82q-45 -31 -64.5 -64.5t-14.5 -59.5t20.5 -46t40 -30.5t46.5 -6.5v-184 q-41 -12 -87 -8t-82.5 27.5t-68.5 55t-44.5 73.5t-9 83t34 84t87.5 76h-96l-78 111q-20 -47 -75.5 -87t-153.5 -36q-92 4 -160.5 35.5t-104.5 79t-53.5 95.5t-17.5 95zM442 358q0 -14 1 -24t5.5 -18.5t7.5 -14.5t10 -9t10 -5t13.5 -3t12.5 -1h13h13q37 0 57.5 16t22.5 34 l2 17v123l-106 -10q-31 -2 -45.5 -21.5t-15.5 -32t-1 -38.5v-13z" />
<glyph unicode="&#x106;" horiz-adv-x="1161" d="M63 754q0 385 114 573.5t405 188.5q213 0 308 -15.5t232 -66.5v-310l-12 2q-12 2 -34.5 5.5t-52.5 7.5t-66.5 7t-76.5 6t-86 5t-89 2q-121 0 -158 -22q-72 -44 -83 -259q-3 -56 -3 -128q0 -254 46 -330t200 -76q96 0 199.5 4t159.5 9l56 5v-309q-98 -41 -208.5 -55 t-331.5 -10q-279 4 -399 191.5t-120 574.5zM573 1638l156 293h299l-233 -293h-222z" />
<glyph unicode="&#x107;" horiz-adv-x="1003" d="M57 545q0 301 94.5 427t264.5 126h44h55q17 0 59 -1t69 -4t70 -8.5t76.5 -13.5t75.5 -20.5t79 -26.5v-233q-123 12 -305 12q-66 0 -90.5 -3t-52 -27.5t-34.5 -78t-7 -153.5q0 -96 6 -146.5t31.5 -76t53 -29.5t93.5 -4l319 16v-233q-53 -39 -130.5 -57.5t-128 -21.5 t-155 -1t-128.5 2q-359 0 -359 555zM461 1221l157 292h297l-231 -292h-223z" />
<glyph unicode="&#x118;" horiz-adv-x="1161" d="M82 330v821q0 348 381 348q430 0 670 -33v-333h-547q-49 0 -75 -19.5t-29 -39t-3 -56.5v-90l551 -23v-330l-551 -18v-90q0 -39 10.5 -62.5t33 -31.5t37.5 -10.5t46 -2.5h527v-329v-2h-3q-70 -49 -75.5 -102.5t30 -81t74.5 -21.5v-184q-70 -25 -143.5 6.5t-115.5 91 t-30.5 138.5t93.5 136l-480 -18q-63 -2 -120.5 8t-127 40t-111.5 103.5t-42 184.5z" />
<glyph unicode="&#x119;" horiz-adv-x="1075" d="M57 549q0 227 48.5 345t144.5 160t282 42q150 0 234 -12.5t149.5 -55.5t90 -123t24.5 -215q0 -160 -82 -225.5t-239 -65.5h-254q0 -37 9 -60.5t19.5 -35.5t39 -17t47 -5t63.5 1t69 1q154 0 308 22v-258q-45 -31 -64.5 -64.5t-15.5 -59t20.5 -46t40 -31t45.5 -6.5v-184 q-68 -23 -137.5 5t-112.5 81t-42 127t61 131q-94 -10 -389 -10q-201 0 -280 133t-79 426zM455 651h118q27 0 43.5 18.5t16.5 47.5q0 61 -11.5 82.5t-60.5 21.5q-68 0 -88 -28.5t-18 -141.5z" />
<glyph unicode="&#x141;" horiz-adv-x="1191" d="M57 600v166l152 63v670h397v-500l185 78v-166l-185 -77v-371q0 -39 10.5 -62.5t33 -32t37.5 -10.5t46 -2h422v-356h-606q-152 0 -246 78t-94 241v345z" />
<glyph unicode="&#x142;" horiz-adv-x="778" d="M23 686v166l145 61v691h397v-523l191 82v-166l-191 -82v-446q0 -68 10.5 -109t24.5 -56t41 -30q86 -43 100 -43v-231h-282q-150 0 -220.5 88t-70.5 299v361z" />
<glyph unicode="&#x143;" horiz-adv-x="1386" d="M92 0v1499h402l428 -766v766h397v-1499h-397l-430 745v-745h-400zM594 1632l158 293h297l-232 -293h-223z" />
<glyph unicode="&#x144;" horiz-adv-x="1136" d="M70 0v1087h331l66 -106q45 43 72.5 63.5t88 41t138.5 20.5q102 0 167.5 -29.5t96.5 -91t41 -126t10 -163.5v-696h-397v705q0 61 -16.5 83.5t-51.5 22.5q-117 0 -149 -76v-735h-397zM463 1229l160 293h295l-230 -293h-225z" />
<glyph unicode="&#x15a;" horiz-adv-x="1220" d="M76 981v125q0 193 111.5 293t293.5 112q385 23 635 -67v-309q-186 20 -491 20q-90 0 -121 -14.5t-31 -75.5v-23q0 -53 22.5 -75.5t100.5 -22.5h192q90 0 160 -29.5t111 -75.5t67.5 -106.5t35.5 -114t9 -108.5v-68q0 -459 -415 -458q-299 0 -391.5 9t-241.5 60v309 q225 -23 530 -22q66 0 93.5 19.5t27.5 64.5v33q0 47 -22.5 68.5t-85.5 21.5h-185q-111 0 -191.5 37t-119.5 86t-62.5 117.5t-27.5 109.5t-4 84zM516 1636l158 293h297l-232 -293h-223z" />
<glyph unicode="&#x15b;" horiz-adv-x="1046" d="M45 692v94q0 139 67.5 225.5t215.5 86.5q388 0 491 -19q96 -17 127 -55v-233h-459q-16 0 -24 -1.5t-14.5 -9.5t-6.5 -26v-13q0 -16 7.5 -23t14.5 -8t23 -1h205q162 0 234.5 -81t72.5 -214v-121q0 -156 -77.5 -229.5t-188.5 -73.5h-72q-174 0 -260 2t-183 19.5t-128 54.5 v233h475q25 0 31 8t6 27v10q0 20 -7 28.5t-30 8.5h-196q-150 0 -237 78.5t-87 232.5zM424 1221l158 292h297l-232 -292h-223z" />
<glyph unicode="&#x179;" horiz-adv-x="1130" d="M41 0v356l586 787h-586v356h1051v-356l-525 -787h525v-356h-1051zM455 1632l157 293h297l-231 -293h-223z" />
<glyph unicode="&#x17a;" horiz-adv-x="1001" d="M35 772v315h934v-315l-371 -455h371v-315h-903v311l403 459h-434zM389 1221l160 292h295l-230 -292h-225z" />
<glyph unicode="&#x17b;" horiz-adv-x="1130" d="M41 0v356l586 787h-586v356h1051v-356l-525 -787h525v-356h-1051zM426 1679v193q0 51 49 51h184q47 0 48 -51v-193q0 -47 -48 -47h-184q-49 0 -49 47z" />
<glyph unicode="&#x17c;" horiz-adv-x="1001" d="M35 772v315h934v-315l-371 -455h371v-315h-903v311l403 459h-434zM360 1268v192q0 51 50 51h184q49 0 49 -51v-192q0 -47 -49 -47h-184q-50 0 -50 47z" />
<glyph unicode="&#x2c6;" horiz-adv-x="774" d="M57 1087l205 287h268l187 -287h-228l-100 105l-102 -105h-230z" />
<glyph unicode="&#x2da;" horiz-adv-x="530" d="M57 1294q0 88 61.5 149.5t147.5 61.5t146.5 -61.5t60.5 -149.5t-60.5 -148.5t-146.5 -60.5t-147.5 60.5t-61.5 148.5zM197 1294.5q0 -28.5 20.5 -48t49 -19.5t48 19.5t19.5 48t-19.5 49t-48 20.5t-49 -20.5t-20.5 -49z" />
<glyph unicode="&#x2dc;" horiz-adv-x="827" d="M57 1225q104 152 252 151q47 0 112.5 -35.5t104.5 -35.5q106 -6 191 81l53 -151q-98 -147 -229 -148q-45 0 -122 36t-116 36q-98 0 -190 -72z" />
<glyph unicode="&#x2000;" horiz-adv-x="965" />
<glyph unicode="&#x2001;" horiz-adv-x="1931" />
<glyph unicode="&#x2002;" horiz-adv-x="965" />
<glyph unicode="&#x2003;" horiz-adv-x="1931" />
<glyph unicode="&#x2004;" horiz-adv-x="643" />
<glyph unicode="&#x2005;" horiz-adv-x="482" />
<glyph unicode="&#x2006;" horiz-adv-x="321" />
<glyph unicode="&#x2007;" horiz-adv-x="321" />
<glyph unicode="&#x2008;" horiz-adv-x="241" />
<glyph unicode="&#x2009;" horiz-adv-x="386" />
<glyph unicode="&#x200a;" horiz-adv-x="107" />
<glyph unicode="&#x2010;" horiz-adv-x="724" d="M41 436v316h643v-316h-643z" />
<glyph unicode="&#x2011;" horiz-adv-x="724" d="M41 436v316h643v-316h-643z" />
<glyph unicode="&#x2012;" horiz-adv-x="724" d="M41 436v316h643v-316h-643z" />
<glyph unicode="&#x2013;" horiz-adv-x="1050" d="M41 430v318h969v-318h-969z" />
<glyph unicode="&#x2014;" horiz-adv-x="1507" d="M41 434v318h1425v-318h-1425z" />
<glyph unicode="&#x2018;" d="M92 989v328q0 76 33 124t79 63.5t93 19.5t80 -2l33 -6v-148q-63 0 -64 -63v-31h23q51 0 51 -51v-234q0 -55 -51 -55h-228q-49 0 -49 55z" />
<glyph unicode="&#x2019;" d="M92 1235v233q0 55 51 56h228q49 0 49 -56v-327q0 -76 -33 -124t-79 -63.5t-93 -19.5t-80 2l-33 6v148q63 0 64 63v31h-23q-51 0 -51 51z" />
<glyph unicode="&#x201a;" d="M92 51v234q0 55 51 55h228q49 0 49 -55v-328q0 -76 -33 -124t-79 -63.5t-93 -19.5t-80 2l-33 6v148q63 0 64 63v31h-23q-51 0 -51 51z" />
<glyph unicode="&#x201c;" horiz-adv-x="884" d="M84 985v328q0 76 33 124t79 63.5t93 19.5t80 -2l32 -7v-147q-63 0 -63 -64v-30h22q51 0 52 -51v-234q0 -55 -52 -55h-227q-49 0 -49 55zM475 985v328q0 76 33 124t80 63.5t93 19.5t79 -2l33 -7v-147q-63 0 -64 -64v-30h23q51 0 51 -51v-234q0 -55 -51 -55h-228 q-49 0 -49 55z" />
<glyph unicode="&#x201d;" horiz-adv-x="884" d="M84 1231v233q0 55 51 56h227q49 0 50 -56v-327q0 -76 -33 -124t-79 -63.5t-93 -19.5t-80 2l-33 6v147q63 0 64 64v31h-23q-51 0 -51 51zM475 1231v233q0 55 51 56h228q49 0 49 -56v-327q0 -76 -33 -124t-80 -63.5t-93 -19.5t-79 2l-33 6v147q63 0 64 64v31h-23 q-51 0 -51 51z" />
<glyph unicode="&#x201e;" horiz-adv-x="884" d="M84 51v234q0 55 51 55h227q49 0 50 -55v-328q0 -76 -33 -124t-79 -63.5t-93 -19.5t-80 2l-33 6v148q63 0 64 63v31h-23q-51 0 -51 51zM475 51v234q0 55 51 55h228q49 0 49 -55v-328q0 -76 -33 -124t-80 -63.5t-93 -19.5t-79 2l-33 6v148q63 0 64 63v31h-23q-51 0 -51 51z " />
<glyph unicode="&#x2026;" horiz-adv-x="1640" d="M49 47v240q0 51 49 51h232q51 0 51 -51v-240q0 -47 -51 -47h-232q-49 0 -49 47zM606 47v240q0 51 49 51h232q51 0 51 -51v-240q0 -47 -51 -47h-232q-49 0 -49 47zM1163 47v240q0 51 49 51h232q51 0 51 -51v-240q0 -47 -51 -47h-232q-49 0 -49 47z" />
<glyph unicode="&#x202f;" horiz-adv-x="386" />
<glyph unicode="&#x2039;" horiz-adv-x="729" d="M57 725l422 416l199 -195l-225 -221l227 -225l-191 -201z" />
<glyph unicode="&#x203a;" horiz-adv-x="729" d="M57 500l228 225l-226 221l199 195l422 -416l-432 -426z" />
<glyph unicode="&#x205f;" horiz-adv-x="482" />
<glyph unicode="&#x20ac;" horiz-adv-x="1275" d="M23 502v178l139 14v84l-139 17v170l139 18q0 61 5 113.5t34.5 135.5t81 140.5t155 100.5t244.5 43q115 0 280.5 -19.5t282.5 -62.5v-285q-272 31 -440 31q-92 0 -143.5 -9.5t-73 -40t-25.5 -56t-4 -91.5l479 -14v-176l-479 -15v-84l479 -14v-178q-31 0 -81 -1t-155.5 -4 t-175 -5.5t-67.5 -4.5q0 -53 15.5 -90t35 -55t59.5 -27.5t63.5 -10.5t72.5 -1q78 0 190.5 14.5t185.5 27.5l72 13v-278q-96 -55 -228 -73.5t-343 -18.5q-61 0 -116.5 7t-133.5 36.5t-134 80t-96 147.5t-40 228z" />
<glyph unicode="&#x2122;" horiz-adv-x="1466" d="M23 1307v192h612v-192h-189v-523h-233v523h-190zM633 784l96 715h248l67 -366l46 366h256l104 -715h-233l-41 349l-27 -349h-211l-41 344l-31 -344h-233z" />
<glyph unicode="&#xe000;" horiz-adv-x="1085" d="M0 1085h1085v-1085h-1085v1085z" />
</font>
</defs>
</svg>
